Coordinates
version=1
nRows=16
nColumns=32
inDegrees=yes

Units are S.I. units (second, meters, Newtons, ...)
If the header above contains a line with 'inDegrees', this indicates whether rotational values are in degrees (yes) or radians (no).

endheader
time	pelvis_tilt	pelvis_list	pelvis_rotation	pelvis_tx	pelvis_ty	pelvis_tz	hip_flexion_r	hip_adduction_r	hip_rotation_r	knee_angle_r	knee_adduction_r	med_cond_adduction_r	lat_cond_adduction_r	patella_r_constrained_knee_angle	hip_flexion_l	hip_adduction_l	hip_rotation_l	knee_angle_l	knee_adduction_l	med_cond_adduction_l	lat_cond_adduction_l	patella_l_constrained_knee_angle	lumbar_extension	lumbar_bending	lumbar_rotation	ankle_angle_r	subtalar_angle_r	mtp_angle_r	ankle_angle_l	subtalar_angle_l	mtp_angle_l
      2.74000000	    -66.50010532	     -4.45514822	    -16.15660940	      0.59447560	      0.66624900	     -0.36487124	     71.05217249	     15.92323357	     -4.50000635	    -49.18519706	     -5.60754561	     -0.00000000	     -0.00000000	     -0.85844363	    106.69465937	     -9.89405353	      7.20748062	    -32.41055891	     -6.96818827	      0.00000000	      0.00000000	     -0.56567097	     71.51865090	     34.67956070	      0.03341271	     13.01619391	     16.49369510	      0.00000000	      2.31353227	      7.89810706	      0.00000000
      2.74500000	    -66.25729548	     -4.32815649	    -15.90849614	      0.60225801	      0.66547292	     -0.36523472	     70.90185776	     15.49347018	     -4.11858686	    -50.65188205	     -5.25962999	     -0.00000000	     -0.00000000	     -0.88404211	    106.45586230	     -9.60545281	      7.01686711	    -33.53249479	     -6.82786163	     -0.00000000	     -0.00000000	     -0.58525244	     71.41462874	     34.06960630	      0.20909885	     11.83364593	     16.43021237	     -0.00000000	      1.65550401	      8.55791175	     -0.00000000
      2.75000000	    -65.99896284	     -4.18237890	    -15.57571700	      0.60997820	      0.66469841	     -0.36563609	     70.82036186	     14.97305847	     -3.74423646	    -52.24116261	     -4.87290328	      0.00000000	      0.00000000	     -0.91178029	    106.18958186	     -9.22587246	      6.87943019	    -34.66285575	     -6.70910662	     -0.00000000	     -0.00000000	     -0.60498096	     71.29594160	     33.33420312	      0.39264248	     10.55848384	     16.31486858	      0.00000000	      1.01724289	      8.89981620	      0.00000000
      2.75500000	    -65.72506494	     -3.98993295	    -15.19156428	      0.61761078	      0.66394543	     -0.36610376	     70.81301035	     14.36222567	     -3.34635999	    -53.95057335	     -4.43088358	     -0.00000000	     -0.00000000	     -0.94161514	    105.91423153	     -8.78923873	      6.76475486	    -35.82991451	     -6.60404396	     -0.00000000	     -0.00000000	     -0.62534998	     71.11083949	     32.52609525	      0.62393826	      9.10029200	     16.23398873	      0.00000000	      0.49484484	      8.95706548	     -0.00000000
      2.76000000	    -65.43994203	     -3.73874778	    -14.75309321	      0.62512977	      0.66324163	     -0.36662810	     70.88295432	     13.65536388	     -2.87980528	    -55.75426230	     -3.90778676	      0.00000000	      0.00000000	     -0.97309545	    105.62098988	     -8.28704865	      6.69872440	    -37.00215438	     -6.51396163	      0.00000000	      0.00000000	     -0.64580942	     70.88627870	     31.62207227	      0.91177974	      7.57003037	     16.10793707	      0.00000000	      0.08755903	      8.78032494	      0.00000000
      2.76500000	    -65.11757693	     -3.62976009	    -14.29062617	      0.63260269	      0.66263331	     -0.36712971	     70.95072350	     13.00095558	     -2.53327646	    -57.59614627	     -3.37559747	      0.00000000	      0.00000000	     -1.00524239	    105.30037074	     -7.76538671	      6.88737407	    -38.19871127	     -6.34376666	      0.00000000	      0.00000000	     -0.66669328	     70.61465003	     30.78962684	      1.01024650	      5.86926763	     15.98081255	     -0.00000000	     -0.13792675	      8.07296644	     -0.00000000
      2.77000000	    -64.87731058	     -3.03262794	    -13.79194405	      0.63985940	      0.66199688	     -0.36762689	     71.28116416	     12.04272913	     -1.71212877	    -59.59664221	     -2.66307613	      0.00000000	      0.00000000	     -1.04015763	    105.01013909	     -7.21718542	      6.74975574	    -39.31912124	     -6.25491553	     -0.00000000	      0.00000000	     -0.68624812	     70.38363369	     29.54779063	      1.58843643	      4.10024310	     15.82832747	     -0.00000000	     -0.26443080	      7.30872015	     -0.00000000
      2.77500000	    -64.52508189	     -3.06131006	    -13.12116099	      0.64729079	      0.66150234	     -0.36831355	     71.38597743	     11.25376527	     -1.59554416	    -61.43928460	     -2.16376579	      0.00000000	      0.00000000	     -1.07231781	    104.65701838	     -6.47472942	      7.20322474	    -40.57999793	     -5.99682749	      0.00000000	      0.00000000	     -0.70825457	     70.07459537	     28.60491113	      1.51781522	      2.70256460	     15.58229368	     -0.00000000	     -0.11538927	      6.65634305	      0.00000000
      2.78000000	    -64.23268750	     -2.79047465	    -12.47355248	      0.65448371	      0.66106494	     -0.36893730	     71.68783460	     10.32340746	     -1.15136764	    -63.38907733	     -1.53281846	      0.00000000	      0.00000000	     -1.10634811	    104.31510039	     -5.78193967	      7.51935981	    -41.71856728	     -5.70748388	     -0.00000000	     -0.00000000	     -0.72812636	     69.79675508	     27.45879218	      1.69515382	      1.29729275	     15.31918785	     -0.00000000	      0.15945313	      5.63393157	     -0.00000000
      2.78500000	    -63.95369067	     -2.40531148	    -11.79122646	      0.66158661	      0.66071543	     -0.36952423	     72.07574536	      9.31134441	     -0.60252338	    -65.36350993	     -0.87046821	     -0.00000000	     -0.00000000	     -1.14080846	    103.95386461	     -5.08679472	      7.75104629	    -42.78921161	     -5.37490833	      0.00000000	      0.00000000	     -0.74681263	     69.49307480	     26.18715000	      1.97050837	     -0.02044849	     14.97773566	      0.00000000	      0.54456515	      4.47872850	      0.00000000
      2.79000000	    -63.68533858	     -2.06613528	    -11.10240193	      0.66857239	      0.66047106	     -0.37007821	     72.50370864	      8.32364322	     -0.11023683	    -67.29265441	     -0.24031713	     -0.00000000	     -0.00000000	     -1.17447838	    103.59133199	     -4.40030056	      8.06083229	    -43.82672183	     -4.96799654	     -0.00000000	     -0.00000000	     -0.76492060	     69.22019094	     24.93239484	      2.17297066	     -1.11706987	     14.60876589	      0.00000000	      1.07958669	      3.45250604	      0.00000000
      2.79500000	    -63.47987117	     -1.58996076	    -10.37041915	      0.67547401	      0.66030557	     -0.37053589	     73.05642070	      7.25016640	      0.49684665	    -69.20207230	      0.39573542	      0.00000000	      0.00000000	     -1.20780401	    103.23791079	     -3.71461916	      8.18198390	    -44.73146300	     -4.54669684	     -0.00000000	     -0.00000000	     -0.78071131	     69.01956678	     23.49950082	      2.44614444	     -2.07096536	     14.03185771	      0.00000000	      1.63635884	      2.48055996	      0.00000000
      2.80000000	    -63.24992485	     -1.33609476	     -9.56940585	      0.68238816	      0.66030672	     -0.37101146	     73.55640601	      6.23579908	      0.76775788	    -71.00984360	      0.88040352	      0.00000000	      0.00000000	     -1.23935557	    102.82889084	     -3.00316798	      8.46494670	    -45.55771248	     -4.00220878	     -0.00000000	     -0.00000000	     -0.79513208	     68.79732034	     22.16835159	      2.45577170	     -2.70285102	     13.50489089	     -0.00000000	      2.28042092	      1.81471479	     -0.00000000
      2.80500000	    -63.02651610	     -1.08878212	     -8.89332236	      0.68905125	      0.66038789	     -0.37122978	     74.11140194	      5.37331352	      1.09014700	    -72.75937815	      1.35921970	     -0.00000000	     -0.00000000	     -1.26989071	    102.42663577	     -2.46963464	      8.76000612	    -46.33989599	     -3.35989160	     -0.00000000	      0.00000000	     -0.80878376	     68.50604839	     20.94921497	      2.49107465	     -3.02895330	     12.86932128	     -0.00000000	      3.06161453	      1.35783477	      0.00000000
      2.81000000	    -62.87820178	     -0.78721686	     -8.10670525	      0.69572549	      0.66062638	     -0.37155489	     74.76490749	      4.37924855	      1.22595439	    -74.40821752	      1.64391324	      0.00000000	      0.00000000	     -1.29866839	    102.00540854	     -1.84454481	      8.91371898	    -46.92815819	     -2.73262974	      0.00000000	      0.00000000	     -0.81905087	     68.38424134	     19.59485886	      2.49977150	     -3.24651043	     12.34046118	     -0.00000000	      3.71847930	      0.94526901	     -0.00000000
      2.81500000	    -62.83416737	     -0.31300783	     -7.12665987	      0.70250062	      0.66095261	     -0.37179404	     75.54350852	      3.17055810	      1.51353770	    -75.98227913	      1.94894299	     -0.00000000	     -0.00000000	     -1.32614094	    101.57878890	     -1.07558576	      8.61515623	    -47.28188215	     -2.26627698	      0.00000000	      0.00000000	     -0.82522452	     68.44154036	     17.79160740	      2.55181298	     -3.20107359	     11.41047261	      0.00000000	      4.35155095	      0.05806757	      0.00000000
